<svg height="512" viewBox="0 0 64 64" width="512" xmlns="http://www.w3.org/2000/svg"><g id="downloading-download-loading-arrow"><path d="m61 13v46h-58v-46h10 7v8h-9v30h42v-30h-9v-8h7z" fill="#f6cc4f"/><path d="m45 30-13 14-13-14h7l-3-25h18l-3 25z" fill="#ec455a"/><path d="m19 29a1 1 0 0 0 -.733 1.681l13 14a1 1 0 0 0 1.466 0l13-14a1 1 0 0 0 -.733-1.681h-5.873l2.866-23.881a1 1 0 0 0 -.993-1.119h-18a1 1 0 0 0 -.993 1.119l2.866 23.881zm5.127-23h15.746l-2.866 23.881a1 1 0 0 0 .993 1.119h4.707l-10.707 11.53-10.707-11.53h4.707a1 1 0 0 0 .993-1.119z"/><path d="m61 12h-17a1 1 0 0 0 -1 1v8a1 1 0 0 0 1 1h8v28h-40v-28h8a1 1 0 0 0 1-1v-8a1 1 0 0 0 -1-1h-17a1 1 0 0 0 -1 1v46a1 1 0 0 0 1 1h58a1 1 0 0 0 1-1v-46a1 1 0 0 0 -1-1zm-1 46h-56v-44h15v6h-8a1 1 0 0 0 -1 1v30a1 1 0 0 0 1 1h42a1 1 0 0 0 1-1v-30a1 1 0 0 0 -1-1h-8v-6h15z"/></g></svg>